<svg version="1.2" baseProfile="tiny-ps" xmlns="http://www.w3.org/2000/svg" viewBox="0 0 247 247" width="1200" height="1200">
	<title>at-logo-2-slim-svg</title>
	<style>
		tspan { white-space:pre }
		.shp0 { fill: #231815 } 
		.shp1 { fill: #3370ff } 
	</style>
	<g id="Layer">
		<g id="Layer">
			<g id="Layer">
				<g id="图层_1">
					<g id="Layer">
						<path id="Layer" class="shp0" d="M158.49 156.62L105.65 156.62L136.16 97.58L189 97.58L158.49 156.62Z" />
						<path id="Layer" class="shp0" d="M188.81 90.42L135.97 90.42L93.7 49L146.54 49L188.81 90.42Z" />
						<path id="Layer" class="shp1" d="M100.1 154.12L57 111.14L87.51 52.09L130.6 95.07L100.1 154.12Z" />
					</g>
				</g>
			</g>
		</g>
		<g id="Layer">
			<g id="Layer">
				<g id="Layer">
					<path id="Layer" fill-rule="evenodd" class="shp1" d="M54.25 201.24C54.37 201.5 54.43 201.76 54.43 202.01C54.43 202.46 54.25 202.85 53.88 203.17C53.52 203.48 53.1 203.64 52.63 203.64C52.31 203.64 52.01 203.56 51.74 203.39C51.47 203.22 51.25 202.96 51.09 202.6L49.32 198.64L38.91 198.64L37.14 202.6C36.98 202.96 36.76 203.22 36.49 203.39C36.22 203.56 35.91 203.64 35.57 203.64C35.12 203.64 34.7 203.48 34.33 203.17C33.96 202.85 33.77 202.46 33.77 202.01C33.77 201.76 33.83 201.5 33.95 201.24L42.11 183.72C42.28 183.33 42.55 183.03 42.92 182.82C43.28 182.61 43.67 182.51 44.09 182.51C44.5 182.51 44.89 182.61 45.25 182.82C45.62 183.03 45.89 183.33 46.07 183.72L54.25 201.24ZM44.12 186.91L40.21 195.69L48.02 195.69L44.12 186.91ZM65.04 188.77C65.55 188.73 65.96 188.84 66.25 189.1C66.55 189.35 66.7 189.74 66.7 190.25C66.7 190.78 66.57 191.18 66.31 191.43C66.06 191.69 65.59 191.86 64.92 191.93L64.04 192.02C62.87 192.14 62.02 192.53 61.48 193.2C60.94 193.87 60.67 194.71 60.67 195.72L60.67 201.92C60.67 202.49 60.49 202.93 60.13 203.24C59.78 203.55 59.33 203.7 58.8 203.7C58.27 203.7 57.84 203.55 57.49 203.24C57.14 202.93 56.97 202.49 56.97 201.92L56.97 190.49C56.97 189.94 57.14 189.51 57.49 189.21C57.84 188.92 58.27 188.77 58.78 188.77C59.29 188.77 59.7 188.91 60.02 189.2C60.33 189.49 60.49 189.9 60.49 190.43L60.49 191.61C60.86 190.74 61.42 190.07 62.16 189.6C62.9 189.13 63.72 188.86 64.63 188.8L65.04 188.77ZM77.13 200.95C78.12 201.01 78.61 201.45 78.61 202.28C78.61 202.75 78.42 203.11 78.03 203.36C77.64 203.61 77.1 203.71 76.39 203.67L75.59 203.61C72.28 203.37 70.63 201.6 70.63 198.29L70.63 191.85L69.15 191.85C68.62 191.85 68.21 191.73 67.92 191.49C67.63 191.26 67.49 190.91 67.49 190.46C67.49 190.01 67.63 189.66 67.92 189.42C68.21 189.19 68.62 189.07 69.15 189.07L70.63 189.07L70.63 186.35C70.63 185.82 70.8 185.39 71.13 185.08C71.46 184.76 71.92 184.6 72.49 184.6C73.04 184.6 73.49 184.76 73.82 185.08C74.15 185.39 74.32 185.82 74.32 186.35L74.32 189.07L76.83 189.07C77.36 189.07 77.77 189.19 78.06 189.42C78.35 189.66 78.49 190.01 78.49 190.46C78.49 190.91 78.35 191.26 78.06 191.49C77.77 191.73 77.36 191.85 76.83 191.85L74.32 191.85L74.32 198.55C74.32 200.01 74.99 200.79 76.33 200.89L77.13 200.95ZM81.05 203.24C80.7 202.93 80.53 202.49 80.53 201.92L80.53 190.52C80.53 189.95 80.7 189.51 81.05 189.21C81.39 188.92 81.83 188.77 82.36 188.77C82.89 188.77 83.34 188.92 83.69 189.21C84.04 189.51 84.22 189.95 84.22 190.52L84.22 201.92C84.22 202.49 84.04 202.93 83.69 203.24C83.34 203.55 82.89 203.7 82.36 203.7C81.83 203.7 81.39 203.55 81.05 203.24ZM80.77 185.59C80.37 185.23 80.17 184.75 80.17 184.16C80.17 183.57 80.37 183.09 80.77 182.74C81.16 182.39 81.69 182.21 82.36 182.21C83.01 182.21 83.54 182.39 83.94 182.74C84.35 183.09 84.55 183.57 84.55 184.16C84.55 184.75 84.35 185.23 83.96 185.59C83.57 185.96 83.03 186.14 82.36 186.14C81.69 186.14 81.16 185.96 80.77 185.59ZM88.07 202.49C87.44 202.11 87.12 201.58 87.12 200.89C87.12 200.5 87.23 200.18 87.45 199.93C87.66 199.68 87.93 199.56 88.24 199.56C88.58 199.56 89.04 199.72 89.63 200.03C90.26 200.33 90.84 200.56 91.36 200.71C91.88 200.87 92.55 200.95 93.36 200.95C94.19 200.95 94.83 200.81 95.29 200.53C95.76 200.26 95.99 199.87 95.99 199.38C95.99 199.05 95.9 198.78 95.71 198.58C95.52 198.39 95.19 198.21 94.7 198.04C94.22 197.87 93.49 197.68 92.5 197.46C90.75 197.11 89.49 196.6 88.73 195.95C87.97 195.3 87.59 194.41 87.59 193.26C87.59 192.39 87.85 191.61 88.36 190.91C88.87 190.21 89.58 189.67 90.47 189.29C91.37 188.9 92.39 188.71 93.53 188.71C94.36 188.71 95.16 188.81 95.93 189.02C96.7 189.23 97.39 189.53 98 189.92C98.63 190.32 98.94 190.84 98.94 191.49C98.94 191.88 98.83 192.21 98.62 192.48C98.4 192.75 98.13 192.88 97.82 192.88C97.6 192.88 97.39 192.84 97.18 192.75C96.97 192.66 96.71 192.52 96.4 192.35C95.83 192.05 95.33 191.83 94.92 191.68C94.51 191.53 94 191.46 93.39 191.46C92.66 191.46 92.08 191.61 91.66 191.9C91.23 192.2 91.02 192.61 91.02 193.12C91.02 193.61 91.24 193.98 91.67 194.24C92.1 194.49 92.94 194.75 94.18 195.01C95.5 195.28 96.54 195.6 97.29 195.95C98.04 196.31 98.57 196.75 98.9 197.28C99.23 197.81 99.39 198.49 99.39 199.32C99.39 200.66 98.83 201.73 97.72 202.54C96.61 203.35 95.12 203.76 93.27 203.76C91.12 203.76 89.39 203.34 88.07 202.49ZM113.12 190.2C114.09 191.2 114.58 192.71 114.58 194.74L114.58 201.95C114.58 202.48 114.42 202.9 114.11 203.21C113.79 203.52 113.35 203.67 112.8 203.67C112.29 203.67 111.88 203.51 111.55 203.19C111.22 202.88 111.06 202.46 111.06 201.95L111.06 201.3C110.73 202.07 110.2 202.68 109.48 203.11C108.76 203.54 107.93 203.76 106.98 203.76C106.01 203.76 105.14 203.56 104.35 203.17C103.56 202.77 102.94 202.23 102.49 201.54C102.04 200.85 101.81 200.08 101.81 199.23C101.81 198.17 102.08 197.33 102.62 196.72C103.17 196.11 104.05 195.67 105.27 195.39C106.49 195.12 108.17 194.98 110.32 194.98L111.06 194.98L111.06 194.3C111.06 193.33 110.85 192.63 110.44 192.19C110.03 191.74 109.36 191.52 108.43 191.52C107.86 191.52 107.28 191.6 106.69 191.77C106.1 191.94 105.4 192.18 104.59 192.5C104.08 192.75 103.7 192.88 103.46 192.88C103.11 192.88 102.82 192.75 102.59 192.5C102.36 192.24 102.25 191.9 102.25 191.49C102.25 191.16 102.33 190.87 102.5 190.62C102.67 190.37 102.96 190.14 103.35 189.92C104.04 189.55 104.86 189.25 105.81 189.04C106.77 188.82 107.71 188.71 108.64 188.71C110.65 188.71 112.14 189.21 113.12 190.2ZM110.13 200.11C110.75 199.45 111.06 198.6 111.06 197.55L111.06 196.93L110.53 196.93C109.21 196.93 108.18 196.99 107.45 197.11C106.72 197.22 106.2 197.43 105.89 197.73C105.58 198.02 105.42 198.43 105.42 198.94C105.42 199.57 105.64 200.08 106.08 200.49C106.53 200.9 107.07 201.1 107.72 201.1C108.71 201.1 109.51 200.77 110.13 200.11ZM130.6 190.19C131.45 191.18 131.87 192.66 131.87 194.65L131.87 201.92C131.87 202.47 131.71 202.91 131.38 203.22C131.05 203.54 130.61 203.7 130.04 203.7C129.47 203.7 129.01 203.54 128.68 203.22C128.34 202.91 128.17 202.47 128.17 201.92L128.17 194.86C128.17 193.74 127.96 192.92 127.54 192.41C127.11 191.9 126.45 191.64 125.54 191.64C124.48 191.64 123.63 191.97 122.99 192.64C122.35 193.31 122.03 194.21 122.03 195.33L122.03 201.92C122.03 202.47 121.86 202.91 121.52 203.22C121.19 203.54 120.73 203.7 120.16 203.7C119.59 203.7 119.15 203.54 118.82 203.22C118.49 202.91 118.33 202.47 118.33 201.92L118.33 190.49C118.33 189.98 118.5 189.56 118.83 189.24C119.17 188.93 119.62 188.77 120.19 188.77C120.7 188.77 121.12 188.92 121.45 189.23C121.78 189.54 121.94 189.94 121.94 190.43L121.94 191.22C122.43 190.41 123.09 189.79 123.92 189.36C124.75 188.93 125.68 188.71 126.73 188.71C128.46 188.71 129.75 189.2 130.6 190.19ZM139.98 202.49C138.47 201.62 137.32 200.38 136.51 198.76C135.7 197.15 135.3 195.26 135.3 193.09C135.3 190.92 135.7 189.04 136.51 187.43C137.32 185.82 138.47 184.59 139.98 183.72C141.49 182.85 143.25 182.42 145.26 182.42C146.56 182.42 147.78 182.61 148.92 182.99C150.07 183.38 151.08 183.93 151.97 184.66C152.22 184.86 152.4 185.07 152.5 185.28C152.6 185.5 152.65 185.77 152.65 186.08C152.65 186.51 152.53 186.88 152.29 187.18C152.06 187.47 151.77 187.62 151.44 187.62C151.04 187.62 150.63 187.48 150.22 187.2C149.37 186.57 148.59 186.14 147.86 185.89C147.13 185.64 146.33 185.52 145.44 185.52C143.39 185.52 141.83 186.16 140.78 187.44C139.73 188.72 139.2 190.6 139.2 193.09C139.2 195.59 139.73 197.48 140.78 198.76C141.83 200.04 143.39 200.68 145.44 200.68C146.29 200.68 147.07 200.55 147.79 200.3C148.5 200.04 149.31 199.61 150.22 199C150.42 198.88 150.62 198.78 150.81 198.7C151.01 198.62 151.22 198.58 151.44 198.58C151.77 198.58 152.06 198.73 152.29 199.03C152.53 199.32 152.65 199.69 152.65 200.12C152.65 200.41 152.6 200.67 152.5 200.9C152.4 201.13 152.22 201.34 151.97 201.54C151.08 202.27 150.07 202.82 148.92 203.21C147.78 203.6 146.56 203.79 145.26 203.79C143.25 203.79 141.49 203.36 139.98 202.49ZM156.18 203.24C155.83 202.93 155.66 202.49 155.66 201.92L155.66 184.28C155.66 183.71 155.83 183.27 156.18 182.98C156.53 182.68 156.96 182.53 157.49 182.53C158.02 182.53 158.47 182.68 158.82 182.98C159.18 183.27 159.36 183.71 159.36 184.28L159.36 201.92C159.36 202.49 159.18 202.93 158.82 203.24C158.47 203.55 158.02 203.7 157.49 203.7C156.96 203.7 156.53 203.55 156.18 203.24ZM165.87 202.84C164.76 202.23 163.9 201.35 163.29 200.21C162.68 199.07 162.37 197.74 162.37 196.22C162.37 194.7 162.68 193.37 163.29 192.24C163.9 191.11 164.76 190.24 165.87 189.63C166.98 189.02 168.28 188.71 169.76 188.71C171.24 188.71 172.54 189.02 173.65 189.63C174.76 190.24 175.62 191.11 176.22 192.24C176.82 193.37 177.12 194.7 177.12 196.22C177.12 197.74 176.82 199.07 176.22 200.21C175.62 201.35 174.76 202.23 173.65 202.84C172.54 203.45 171.24 203.76 169.76 203.76C168.28 203.76 166.98 203.45 165.87 202.84ZM172.48 199.71C173.11 198.92 173.43 197.75 173.43 196.22C173.43 194.7 173.11 193.54 172.48 192.75C171.85 191.95 170.94 191.55 169.76 191.55C168.58 191.55 167.67 191.95 167.03 192.75C166.39 193.54 166.07 194.7 166.07 196.22C166.07 197.75 166.38 198.92 167.01 199.71C167.64 200.5 168.55 200.89 169.73 200.89C170.93 200.89 171.85 200.5 172.48 199.71ZM192.93 189.24C193.27 189.56 193.44 189.99 193.44 190.52L193.44 201.98C193.44 202.49 193.27 202.91 192.92 203.22C192.57 203.54 192.12 203.7 191.57 203.7C191.04 203.7 190.62 203.55 190.3 203.25C189.99 202.96 189.83 202.55 189.83 202.04L189.83 201.3C189.38 202.09 188.77 202.7 188 203.12C187.23 203.55 186.36 203.76 185.4 203.76C181.85 203.76 180.08 201.77 180.08 197.79L180.08 190.52C180.08 189.99 180.25 189.56 180.58 189.24C180.91 188.93 181.36 188.77 181.91 188.77C182.48 188.77 182.94 188.93 183.27 189.24C183.6 189.56 183.77 189.99 183.77 190.52L183.77 197.82C183.77 198.84 183.98 199.6 184.39 200.09C184.8 200.58 185.45 200.83 186.34 200.83C187.37 200.83 188.19 200.49 188.81 199.81C189.43 199.13 189.74 198.23 189.74 197.11L189.74 190.52C189.74 189.99 189.91 189.56 190.24 189.24C190.58 188.93 191.02 188.77 191.57 188.77C192.14 188.77 192.6 188.93 192.93 189.24ZM210.7 183.01C211.05 183.32 211.23 183.74 211.23 184.25L211.23 201.92C211.23 202.45 211.06 202.88 210.73 203.19C210.39 203.51 209.95 203.67 209.4 203.67C208.85 203.67 208.4 203.51 208.07 203.19C207.73 202.88 207.56 202.45 207.56 201.92L207.56 201.19C207.13 202 206.5 202.63 205.69 203.08C204.87 203.53 203.94 203.76 202.89 203.76C201.65 203.76 200.54 203.44 199.57 202.81C198.6 202.18 197.84 201.29 197.29 200.14C196.75 198.99 196.48 197.66 196.48 196.16C196.48 194.66 196.75 193.35 197.29 192.23C197.84 191.1 198.59 190.24 199.55 189.63C200.52 189.02 201.63 188.71 202.89 188.71C203.94 188.71 204.86 188.93 205.67 189.36C206.48 189.79 207.1 190.4 207.53 191.19L207.53 184.19C207.53 183.7 207.69 183.3 208.02 182.99C208.35 182.68 208.79 182.53 209.34 182.53C209.89 182.53 210.34 182.69 210.7 183.01ZM206.6 199.68C207.24 198.87 207.56 197.72 207.56 196.22C207.56 194.72 207.24 193.57 206.6 192.78C205.96 191.98 205.06 191.58 203.9 191.58C202.71 191.58 201.8 191.97 201.15 192.76C200.5 193.55 200.17 194.68 200.17 196.16C200.17 197.66 200.5 198.82 201.15 199.65C201.8 200.48 202.7 200.89 203.87 200.89C205.05 200.89 205.96 200.49 206.6 199.68Z" />
				</g>
			</g>
		</g>
	</g>
</svg>